# xmcd
#
# Track frame offsets:
#	150
#	14372
#	37806
#	59849
#	78568
#	95958
#	111052
#	129287
#	141087
#	155704
#	166201
#	177916
#	180767
#	194827
#	211769
#
# Disc length: 2857 seconds
# Revision: 0
# Processed by: cddbd v1.5.2PL0 Copyright (c) Steve Scherf et al.
# Submitted via: dBpowerAMP V12.0
#
DISCID=cd0b270f
DTITLE=Corb Lund - Horse Soldier! Horse Soldier!
DYEAR=2007
DGENRE=Country
TTITLE0=I Wanna Be in the Cavalry
TTITLE1=Horse Soldier, Horse Soldier
TTITLE2=Lament for Lester Cousins
TTITLE3=Brother Brigham, Brother Young
TTITLE4=The Horse I Rode in On
TTITLE5=A Leader on Losing Control
TTITLE6=Student Visas
TTITLE7=What That Song Means Now
TTITLE8=Hard on Equipment (Tool for the Job)
TTITLE9=Family Reunion
TTITLE10=Especially a Paint
TTITLE11=Ciesla's Revenge (Intro)
TTITLE12=My Saddle Horse Has Died
TTITLE13=I Wanna Be in the Cavalry: Reprise
TTITLE14=Taps
EXTD=
EXTT0=
EXTT1=
EXTT2=
EXTT3=
EXTT4=
EXTT5=
EXTT6=
EXTT7=
EXTT8=
EXTT9=
EXTT10=
EXTT11=
EXTT12=
EXTT13=
EXTT14=
PLAYORDER=
